<?xml version="1.0" standalone="no"?>
<!DOCTYPE svg PUBLIC "-//W3C//DTD SVG 20010904//EN"
 "http://www.w3.org/TR/2001/REC-SVG-20010904/DTD/svg10.dtd">
<svg version="1.0" xmlns="http://www.w3.org/2000/svg"
 width="1153.000000pt" height="1153.000000pt" viewBox="0 0 1153.000000 1153.000000"
 preserveAspectRatio="xMidYMid meet">
<metadata>
Created by potrace 1.14, written by Peter Selinger 2001-2017
</metadata>
<g transform="translate(0.000000,1153.000000) scale(0.100000,-0.100000)"
fill="#000000" stroke="none">
<path d="M5437 11034 c-3 -3 -34 -8 -69 -10 -92 -5 -208 -14 -248 -18 -19 -3
-62 -7 -95 -11 -59 -6 -91 -10 -150 -20 -16 -3 -46 -8 -65 -11 -66 -10 -175
-30 -215 -38 -119 -26 -256 -58 -296 -70 -27 -8 -51 -15 -54 -16 -14 -2 -46
-12 -230 -74 -110 -37 -204 -68 -210 -70 -5 -1 -21 -8 -35 -13 -14 -6 -50 -21
-80 -33 -89 -36 -117 -48 -277 -126 -84 -41 -157 -74 -162 -74 -5 0 -11 -3
-13 -7 -1 -5 -25 -20 -53 -34 -27 -14 -90 -50 -140 -79 -49 -29 -99 -58 -110
-64 -21 -11 -222 -145 -240 -159 -10 -7 -95 -70 -143 -105 -76 -54 -196 -152
-315 -255 -73 -64 -387 -378 -432 -432 -22 -27 -45 -53 -51 -59 -24 -25 -162
-194 -194 -238 -18 -27 -37 -48 -42 -48 -4 0 -8 -5 -8 -11 0 -6 -13 -28 -29
-48 -15 -20 -66 -93 -113 -163 -47 -70 -89 -124 -93 -120 -5 4 -5 2 -1 -5 3
-6 -9 -36 -27 -65 -19 -29 -68 -115 -109 -190 -41 -76 -79 -134 -83 -130 -5 4
-5 1 -1 -5 4 -7 -8 -43 -28 -80 -45 -89 -156 -341 -156 -357 0 -7 -4 -16 -9
-21 -4 -6 -28 -66 -52 -135 -24 -69 -47 -127 -51 -128 -5 -2 -6 -7 -4 -11 3
-4 -9 -52 -26 -106 -87 -291 -158 -642 -192 -955 -7 -61 -17 -209 -21 -300 -2
-41 -4 -77 -5 -80 -6 -26 5 -443 14 -542 7 -67 15 -149 22 -228 4 -48 9 -81
20 -140 2 -8 6 -33 9 -56 17 -131 73 -392 111 -519 8 -27 16 -59 18 -70 13
-60 140 -430 175 -510 5 -11 21 -49 36 -85 66 -157 199 -425 263 -529 11 -19
19 -38 16 -43 -3 -4 -1 -8 5 -8 5 0 24 -26 42 -57 18 -32 45 -77 61 -101 16
-23 26 -47 22 -54 -4 -6 -3 -8 3 -5 10 6 63 -63 63 -82 0 -5 4 -11 8 -13 5 -1
30 -34 57 -73 26 -38 57 -82 69 -97 12 -14 31 -39 43 -55 12 -15 31 -39 42
-52 12 -13 21 -27 21 -30 0 -3 15 -22 33 -41 17 -20 57 -65 87 -100 30 -36 72
-83 92 -104 20 -22 35 -43 32 -48 -3 -5 -1 -7 4 -6 14 4 202 -193 195 -205 -3
-6 -1 -7 6 -3 7 5 32 -12 64 -43 29 -27 62 -58 74 -69 13 -10 19 -22 15 -26
-4 -4 -2 -6 4 -4 10 3 87 -57 147 -115 16 -15 31 -27 34 -27 3 0 20 -12 38
-27 18 -16 45 -37 61 -48 15 -11 35 -27 44 -35 9 -8 25 -21 36 -28 10 -7 31
-20 46 -31 16 -10 25 -22 20 -27 -4 -5 -3 -6 2 -2 5 4 56 -25 115 -64 150
-101 305 -198 316 -198 2 0 28 -14 57 -31 77 -46 327 -170 445 -220 56 -24 99
-47 96 -53 -3 -5 -1 -6 6 -2 15 10 82 -15 74 -27 -3 -6 -1 -7 4 -4 15 9 116
-27 106 -37 -4 -5 -3 -6 4 -2 7 4 29 0 50 -9 21 -9 39 -16 41 -16 15 4 22 -1
16 -11 -4 -6 -3 -8 4 -4 6 3 48 -6 94 -21 46 -14 89 -28 97 -29 8 -2 26 -6 40
-10 14 -4 29 -7 34 -6 4 1 7 -2 7 -6 0 -5 6 -9 13 -9 19 0 159 -33 171 -40 6
-4 22 -8 36 -9 14 -1 48 -7 75 -13 45 -10 175 -34 250 -47 16 -3 34 -9 40 -14
6 -5 17 -5 24 -1 7 5 29 5 50 0 32 -7 115 -18 196 -24 17 -2 36 -3 43 -4 8 -1
10 -6 6 -14 -6 -9 -5 -9 7 0 9 7 26 10 40 7 13 -3 160 -8 327 -10 167 -2 308
-6 313 -9 5 -4 9 -2 9 3 0 4 12 9 28 9 42 1 237 12 237 13 0 3 30 7 85 13 30
4 73 9 95 12 22 3 54 7 70 9 17 2 75 12 130 22 55 10 114 18 132 19 17 0 29 3
26 8 -4 6 9 9 65 11 9 1 19 3 22 6 10 12 160 41 171 34 7 -4 9 -3 6 3 -6 9 34
24 103 38 8 2 72 22 143 45 70 22 132 38 139 34 6 -4 8 -3 5 3 -4 6 13 16 36
24 23 7 68 24 100 36 32 13 63 20 69 17 7 -4 8 -3 4 4 -4 7 -1 12 8 12 8 0 27
6 43 14 86 44 168 76 180 72 8 -3 12 -2 9 2 -7 12 63 44 77 36 7 -4 8 -3 4 1
-4 5 18 22 50 38 32 15 99 51 150 78 51 27 93 46 93 43 0 -3 7 1 15 10 8 8 41
29 72 47 32 18 60 36 61 41 2 4 8 8 13 8 6 0 37 18 69 40 32 22 64 40 69 40 6
0 11 4 11 8 0 5 10 14 23 20 12 7 47 30 77 51 30 22 59 37 64 34 5 -4 6 -1 2
5 -4 7 -3 12 2 12 4 0 18 9 30 20 12 12 22 18 22 15 0 -3 12 5 27 19 15 14 31
22 37 19 6 -3 8 -3 4 2 -4 4 11 22 35 39 23 17 47 35 53 41 6 5 30 26 54 45
24 19 51 43 61 54 10 10 23 15 30 11 7 -5 10 -4 6 2 -3 5 29 41 71 79 95 85
370 361 389 391 9 13 19 20 24 17 5 -3 8 0 7 8 -2 7 3 12 10 10 8 -1 11 2 8 7
-4 5 4 20 16 33 13 13 40 45 61 71 21 26 43 44 49 41 7 -4 8 -2 4 4 -6 10 54
98 112 162 12 13 22 28 22 31 0 11 42 54 51 52 4 -2 6 3 4 10 -3 6 6 25 20 41
14 16 25 33 25 37 0 4 6 14 13 21 6 7 18 25 26 40 8 15 22 37 33 47 10 11 18
23 18 26 0 3 16 31 35 61 19 30 35 57 35 61 0 3 6 14 14 22 8 9 28 41 45 71
17 30 35 54 40 53 6 -2 8 3 5 11 -5 13 71 165 89 177 5 3 8 8 6 10 -6 11 14
48 23 43 6 -4 8 -2 5 3 -4 6 12 51 34 99 56 122 74 163 92 209 8 22 23 58 33
80 10 22 19 48 21 59 2 10 10 33 17 50 16 34 114 338 121 371 2 11 4 21 6 23
3 4 6 15 14 59 4 24 11 41 15 38 3 -2 6 5 5 16 -1 11 7 53 17 92 10 40 20 86
22 102 12 77 30 151 40 157 7 5 7 8 -2 8 -7 0 -11 4 -8 8 6 10 16 62 20 107
11 105 19 144 28 139 6 -4 6 2 -1 13 -6 11 -9 22 -6 24 2 2 6 36 10 74 3 39 8
88 10 110 3 22 5 64 6 93 1 29 6 55 11 58 4 3 6 9 3 14 -3 4 -7 140 -9 301 -2
162 -7 312 -9 334 -3 22 -8 69 -12 105 -9 103 -14 148 -30 259 -9 57 -13 106
-10 109 3 3 1 10 -4 16 -5 6 -12 29 -15 50 -4 21 -9 51 -13 65 -3 14 -7 35 -7
46 -1 11 -4 25 -7 30 -3 6 -12 39 -18 75 -7 36 -17 76 -22 90 -5 14 -10 36
-13 50 -6 37 -83 293 -116 385 -71 198 -83 231 -91 239 -5 6 -9 16 -9 23 0 7
-16 47 -35 88 -20 42 -33 81 -29 88 4 7 4 9 -1 5 -4 -4 -16 9 -25 30 -66 140
-169 341 -180 352 -3 3 -16 25 -29 50 -14 25 -56 95 -94 155 -38 61 -75 119
-81 130 -6 11 -14 22 -17 25 -3 3 -25 34 -50 70 -24 36 -71 100 -104 143 -33
43 -64 86 -70 95 -5 9 -16 22 -24 28 -8 6 -11 16 -6 24 5 8 4 11 -2 7 -6 -4
-28 14 -49 39 -66 78 -73 87 -147 169 -68 76 -329 337 -380 380 -13 11 -45 39
-73 62 -27 23 -68 58 -91 76 -23 19 -40 37 -38 41 3 3 2 4 -1 1 -4 -2 -21 8
-39 23 -18 15 -45 36 -60 47 -15 11 -53 39 -84 62 -31 24 -81 59 -111 80 -30
20 -57 40 -60 43 -3 3 -18 13 -35 22 -16 10 -29 23 -27 30 2 7 0 10 -3 6 -9
-8 -27 1 -105 51 -30 19 -58 36 -62 36 -4 0 -15 7 -25 15 -10 8 -34 23 -53 33
-19 9 -55 29 -80 43 -68 39 -312 161 -338 169 -12 3 -20 10 -18 14 3 4 -1 8
-9 8 -8 0 -34 8 -57 18 -45 18 -76 31 -143 60 -56 24 -311 115 -365 130 -25 7
-85 25 -135 40 -104 31 -198 55 -238 61 -16 2 -32 6 -37 9 -4 3 -25 7 -46 10
-22 4 -52 10 -69 15 -16 5 -48 11 -70 14 -35 5 -76 12 -175 30 -14 2 -50 7
-80 11 -30 4 -66 8 -80 10 -14 2 -59 7 -100 10 -41 4 -88 9 -105 11 -16 3
-154 7 -305 10 -151 3 -277 7 -281 9 -3 3 -9 2 -12 -1z"/>
<path d="M9860 8856 c0 -2 8 -10 18 -17 15 -13 16 -12 3 4 -13 16 -21 21 -21
13z"/>
<path d="M9350 2346 c0 -2 8 -10 18 -17 15 -13 16 -12 3 4 -13 16 -21 21 -21
13z"/>
<path d="M9095 2090 c-3 -5 -1 -10 4 -10 6 0 11 5 11 10 0 6 -2 10 -4 10 -3 0
-8 -4 -11 -10z"/>
<path d="M8750 1571 c0 -6 4 -13 10 -16 6 -3 7 1 4 9 -7 18 -14 21 -14 7z"/>
<path d="M8507 1409 c7 -7 15 -10 18 -7 3 3 -2 9 -12 12 -14 6 -15 5 -6 -5z"/>
<path d="M3636 1097 c3 -10 9 -15 12 -12 3 3 0 11 -7 18 -10 9 -11 8 -5 -6z"/>
</g>
</svg>
