<svg viewBox="0 0 50 50" fill="none" xmlns="http://www.w3.org/2000/svg">
<g clip-path="url(#clip0)">
<path d="M35.4913 0H13.5272C6.0683 0 0 6.06859 0 13.5275V35.4916C0 42.9507 6.0683 49.0191 13.5272 49.0191H35.4913C42.9507 49.0191 49.0191 42.9505 49.0191 35.4916V13.5275C49.0193 6.06859 42.9507 0 35.4913 0ZM44.6701 35.4916C44.6701 40.5526 40.5526 44.6698 35.4916 44.6698H13.5272C8.46646 44.6701 4.34921 40.5526 4.34921 35.4916V13.5275C4.34921 8.46675 8.46646 4.34921 13.5272 4.34921H35.4913C40.5523 4.34921 44.6698 8.46675 44.6698 13.5275V35.4916H44.6701Z" fill="#E8E8E8"/>
<path d="M24.5099 11.8791C17.5451 11.8791 11.8789 17.5452 11.8789 24.5101C11.8789 31.4746 17.5451 37.1405 24.5099 37.1405C31.4747 37.1405 37.1408 31.4746 37.1408 24.5101C37.1408 17.5452 31.4747 11.8791 24.5099 11.8791ZM24.5099 32.791C19.9435 32.791 16.2281 29.0762 16.2281 24.5098C16.2281 19.9431 19.9432 16.228 24.5099 16.228C29.0765 16.228 32.7916 19.9431 32.7916 24.5098C32.7916 29.0762 29.0762 32.791 24.5099 32.791Z" fill="#E8E8E8"/>
<path d="M37.6709 8.19126C36.8329 8.19126 36.0098 8.5305 35.418 9.12489C34.8233 9.71638 34.4814 10.5398 34.4814 11.3807C34.4814 12.2189 34.8236 13.0421 35.418 13.6365C36.0095 14.228 36.8329 14.5701 37.6709 14.5701C38.5117 14.5701 39.3323 14.228 39.9267 13.6365C40.521 13.0421 40.8603 12.2186 40.8603 11.3807C40.8603 10.5398 40.521 9.71638 39.9267 9.12489C39.3352 8.5305 38.5117 8.19126 37.6709 8.19126Z" fill="#E8E8E8"/>
</g>
<defs>
<clipPath id="clip0">
<rect width="49.0193" height="49.0193" fill="white"/>
</clipPath>
</defs>
</svg>
