<svg viewBox="0 0 45 54" fill="none" xmlns="http://www.w3.org/2000/svg">
<g clip-path="url(#clip0)">
<path d="M12.6404 51.6939L13.5502 45.8826L11.5235 45.8353H1.8457L8.57128 2.95357C8.59215 2.82411 8.66 2.70341 8.75916 2.61769C8.85832 2.53197 8.98532 2.48474 9.11753 2.48474H25.4357C30.853 2.48474 34.5916 3.61832 36.5435 5.85573C37.4585 6.90534 38.0413 8.00218 38.3232 9.20923C38.6189 10.4758 38.6241 11.9889 38.3353 13.8345L38.3145 13.9692V15.1518L39.2295 15.6731C40.0002 16.0842 40.6126 16.5547 41.0823 17.0935C41.8651 17.991 42.3714 19.1315 42.5854 20.4838C42.8063 21.8745 42.7332 23.5294 42.3714 25.4029C41.9539 27.5581 41.2789 29.4352 40.3673 30.9711C39.5287 32.3863 38.4606 33.5602 37.1924 34.4698C35.9816 35.334 34.5428 35.99 32.9163 36.4098C31.3401 36.8227 29.543 37.0309 27.572 37.0309H26.302C25.3939 37.0309 24.5119 37.3597 23.8195 37.9493C23.1254 38.551 22.6661 39.3732 22.5252 40.2724L22.4295 40.7955L20.8221 51.0379L20.749 51.414C20.7298 51.5329 20.6968 51.5924 20.6481 51.6327C20.6046 51.6694 20.542 51.6939 20.4811 51.6939H12.6404Z" fill="#253B80"/>
<path d="M40.0959 14.1056C40.0472 14.4187 39.9915 14.7389 39.9289 15.0677C37.7769 26.1778 30.4146 30.0159 21.0117 30.0159H16.2241C15.0742 30.0159 14.1052 30.8556 13.926 31.9962L11.4748 47.6283L10.7807 52.0594C10.6641 52.8081 11.2382 53.4834 11.9898 53.4834H20.4811C21.4866 53.4834 22.3408 52.7487 22.4991 51.7515L22.5826 51.3177L24.1814 41.1155L24.284 40.5557C24.4406 39.5551 25.2965 38.8204 26.3021 38.8204H27.572C35.7989 38.8204 42.2392 35.4616 44.1215 25.7422C44.9079 21.682 44.5008 18.2918 42.4201 15.9074C41.7904 15.1884 41.0092 14.5919 40.0959 14.1056Z" fill="#179BD7"/>
<path d="M37.8445 13.2029C37.5157 13.1067 37.1765 13.0192 36.8286 12.9405C36.4789 12.8635 36.1205 12.7953 35.7517 12.7358C34.4609 12.5259 33.0465 12.4262 31.5313 12.4262H18.7412C18.4263 12.4262 18.1271 12.4979 17.8592 12.6274C17.2694 12.9125 16.831 13.4741 16.7249 14.1616L14.0041 31.4906L13.9258 31.9962C14.105 30.8556 15.074 30.0159 16.2239 30.0159H21.0115C30.4144 30.0159 37.7767 26.1761 39.9287 15.0677C39.993 14.7388 40.047 14.4187 40.0957 14.1056C39.5512 13.8152 38.9614 13.5668 38.3264 13.3551C38.1699 13.3026 38.0081 13.2519 37.8445 13.2029Z" fill="#222D65"/>
<path d="M16.7252 14.1616C16.8313 13.4741 17.2697 12.9126 17.8595 12.6292C18.1291 12.4997 18.4266 12.428 18.7415 12.428H31.5315C33.0468 12.428 34.4612 12.5277 35.752 12.7376C36.1208 12.7971 36.4792 12.8653 36.8288 12.9423C37.1768 13.021 37.516 13.1085 37.8448 13.2047C38.0083 13.2537 38.1701 13.3044 38.3284 13.3551C38.9634 13.5668 39.5532 13.817 40.0977 14.1056C40.7379 9.99989 40.0925 7.20443 37.8848 4.67313C35.451 1.88641 31.0584 0.693359 25.4375 0.693359H9.11934C7.97116 0.693359 6.99172 1.53305 6.81428 2.67537L0.0173773 45.998C-0.116577 46.8551 0.541019 47.6284 1.40042 47.6284H11.4749L14.0043 31.4906L16.7252 14.1616Z" fill="#253B80"/>
</g>
<defs>
<clipPath id="clip0">
<rect width="44.4945" height="52.7901" fill="white" transform="translate(0 0.693359)"/>
</clipPath>
</defs>
</svg>
